<?xml version="1.0" encoding="utf-8"?>
<!-- Svg Vector Icons : http://www.onlinewebfonts.com/icon -->
<!DOCTYPE svg PUBLIC "-//W3C//DTD SVG 1.1//EN" "http://www.w3.org/Graphics/SVG/1.1/DTD/svg11.dtd">
<svg version="1.1" xmlns="http://www.w3.org/2000/svg" xmlns:xlink="http://www.w3.org/1999/xlink" x="0px" y="0px" viewBox="0 0 1000 1000" enable-background="new 0 0 1000 1000" xml:space="preserve">
<metadata> Svg Vector Icons : http://www.onlinewebfonts.com/icon </metadata>
<g><g transform="translate(0.000000,511.000000) scale(0.100000,-0.100000)"><path d="M8296,3464.9c-67-26.8-80.4-111-80.4-509.2v-392.4l-549.4-9.6c-681.4-11.5-880.5-47.9-1286.3-235.4c-346.5-158.9-367.5-179.9-2011.8-1816.5C3441.7-420.8,2775.6-1067.7,2699-1123.2c-160.8-112.9-367.5-208.7-551.3-252.7c-122.5-30.6-258.4-36.4-928.4-45.9c-874.8-11.5-857.5-7.7-989.6-145.5C51.8-1753,57.5-2011.4,243.2-2199c145.5-147.4,143.6-145.5,1064.3-135.9c706.3,7.7,811.6,13.4,974.3,47.9c201,42.1,472.8,135.9,622.1,208.7c310.1,155,363.7,204.8,1971.6,1805c853.7,848,1594.5,1575.3,1650,1613.6c124.4,90,380.9,210.6,541.7,252.7c97.6,26.8,231.6,36.4,637.4,42.1l511.1,9.6v-394.3c0-317.7,5.7-407.7,28.7-451.7c36.4-68.9,109.1-91.9,181.8-55.5c30.6,15.3,359.9,281.4,733.1,595.3c698.7,583.8,740.8,627.8,740.8,761.8c0,134-42.1,178-740.8,763.7c-373.3,312-696.7,576.2-719.7,589.6C8395.5,3478.3,8338.1,3482.2,8296,3464.9z"/><path d="M405.9,2534.7c-93.8-30.6-254.6-195.2-283.3-292.9c-47.9-164.6-17.2-310.1,93.8-436.4c139.7-157,116.8-153.1,1003-164.6c870.9-11.5,939.8-21.1,1211.6-145.5c218.2-99.5,365.6-216.3,750.3-595.3l356-348.4l319.7,319.7l321.6,321.6L3751.8,1614c-530.2,524.5-744.6,673.8-1163.8,809.7c-348.4,114.9-426.9,122.5-1301.6,128.3C712.1,2555.7,453.7,2550,405.9,2534.7z"/><path d="M5376.9-652.4l-321.6-321.6l426.9-421.1c449.8-444.1,616.4-574.2,897.7-704.4c398.2-183.8,614.4-224,1295.9-235.5l539.8-9.6v-392.4c0-312,5.7-402,28.7-446c36.4-68.9,109.1-91.9,181.8-55.5c30.6,15.3,359.9,281.4,733.1,595.3c503.4,421.1,685.3,585.7,712.1,637.4c40.2,86.1,32.5,206.7-19.1,283.3c-47.9,72.7-1395.4,1196.3-1452.8,1211.7c-68.9,17.2-122.5-7.7-155-68.9c-23-44-28.7-137.8-28.7-449.8v-396.2l-491.9,7.7c-551.3,9.6-671.9,26.8-920.7,141.7c-218.2,99.5-365.6,216.3-750.4,595.3l-356,348.4L5376.9-652.4z"/></g></g>
</svg>